<svg id="Warstwa_1" data-name="Warstwa 1" xmlns="http://www.w3.org/2000/svg" viewBox="0 0 816.89 160.81">
  <defs>
    <style>
      .cls-1 {
        fill: #003264;
      }

      .cls-1, .cls-3 {
        fill-rule: evenodd;
      }

      .cls-2, .cls-3 {
        fill: #4eb039;
      }
    </style>
  </defs>
  <title>logo</title>
  <g>
    <path class="cls-1" d="M246.45,23.18H231L208.35,78.63l12.33,3.69,4.83-13.26h26.42l4.83,13.26,12.33-3.69L246.45,23.18h0ZM229.15,59.09L237.58,36h2.29l8.44,23.1H229.15Z"/>
    <polygon class="cls-1" points="512.58 82.32 512.6 59.56 491.68 28.27 501.78 21.35 519.4 47.55 537.02 21.35 547.12 28.27 526.21 59.56 526.22 82.32 512.58 82.32 512.58 82.32"/>
    <polygon class="cls-1" points="632.04 82.32 632.06 34.75 615.64 34.75 615.64 23.18 638.86 23.18 662.42 23.18 662.42 34.75 645.67 34.75 645.68 82.32 632.04 82.32 632.04 82.32"/>
    <polygon class="cls-1" points="812.25 82.32 803.96 23.18 783.26 23.18 773.67 64.92 764.08 23.18 743.36 23.18 735.08 82.32 748.72 82.32 754.6 39.9 764.03 82.32 783.31 82.32 792.73 39.95 798.6 82.32 812.25 82.32 812.25 82.32"/>
    <path class="cls-1" d="M676.85,82.32V23.18h42.69V34.75h-29v11h26V56.26h-26v14.5h29V82.32H676.85Z"/>
    <path class="cls-1" d="M282.13,23.18l-0.42,59.14h13.68V60.25H308l15.53,23.86L334,76.25c-5.49-8.2-10.92-17.73-17.33-19.91,5.74-2.64,14.1-5,14.1-15.84,0-9.64-7.45-17.33-15.11-17.33H282.13Zm27.14,10.66c4.92,0,8.61,3.55,8.61,8,0,3.53-3.27,8.2-7.81,8.2H295.39V33.84h13.88Z"/>
    <path class="cls-1" d="M396,28.43c-6.67-3.83-12.16-7.58-21.1-7.58-13.29,0-26.41,5.73-26.41,19.41,0,5.69,4.69,11,9.92,13.25,7,3,10.43,3.48,18.37,5.61,2.65,0.71,5.76,3.07,5.76,6.19,0,6.72-8.06,6.38-12.92,6.42-2.79,0-8.95-1.76-14.86-6.27-2.5,3.11-5.32,6.68-7.82,9.79,11.76,6.79,16.47,7.81,24.35,7.81,12.7,0,25.44-6.27,25.44-19.48,0-8.06-6.41-13.5-12.34-15.09-7.76-2.08-22.08-3.62-22.08-9,0-4.19,5.73-7,12.57-7,5.54,0,8.7,2.36,13.59,5.22L396,28.43h0Z"/>
    <path class="cls-1" d="M481.42,28.43c-6.67-3.83-12.16-7.58-21.1-7.58-13.29,0-26.41,5.73-26.41,19.41,0,5.69,4.69,11,9.92,13.25,7,3,10.43,3.48,18.37,5.61,2.65,0.71,5.76,3.07,5.76,6.19,0,6.72-8.06,6.38-12.92,6.42-2.79,0-8.95-1.76-14.86-6.27-2.5,3.11-5.32,6.68-7.82,9.79,11.76,6.79,16.47,7.81,24.35,7.81,12.7,0,25.44-6.27,25.44-19.48,0-8.06-6.41-13.5-12.34-15.09-7.76-2.08-22.08-3.62-22.08-9,0-4.19,5.73-7,12.57-7,5.54,0,8.7,2.36,13.59,5.22l7.51-9.34h0Z"/>
    <path class="cls-1" d="M605.43,28.43c-6.67-3.83-12.16-7.58-21.1-7.58-13.29,0-26.41,5.73-26.41,19.41,0,5.69,4.69,11,9.92,13.25,7,3,10.43,3.48,18.37,5.61,2.65,0.71,5.76,3.07,5.76,6.19,0,6.72-8.06,6.38-12.92,6.42-2.79,0-8.95-1.76-14.86-6.27-2.5,3.11-5.32,6.68-7.82,9.79,11.76,6.79,16.47,7.81,24.35,7.81,12.7,0,25.44-6.27,25.44-19.48,0-8.06-6.41-13.5-12.34-15.09-7.76-2.08-22.08-3.62-22.08-9,0-4.19,5.73-7,12.57-7,5.54,0,8.7,2.36,13.59,5.22l7.51-9.34h0Z"/>
    <polygon class="cls-2" points="420.6 140.34 420.6 128.57 429.82 112.7 425.8 112.7 418.79 125.15 412.32 112.7 408.22 112.7 416.99 128.61 416.99 140.34 420.6 140.34 420.6 140.34"/>
    <polygon class="cls-2" points="384.7 140.34 388.31 140.34 388.31 115.74 396.75 115.74 396.75 112.7 376.3 112.7 376.3 115.74 384.7 115.74 384.7 140.34 384.7 140.34"/>
    <polygon class="cls-2" points="359.33 112.7 359.33 140.34 362.94 140.34 362.94 112.7 359.33 112.7 359.33 112.7"/>
    <polygon class="cls-2" points="330.54 140.34 345.96 140.34 345.96 137.34 334.15 137.34 334.15 112.7 330.54 112.7 330.54 140.34 330.54 140.34"/>
    <polygon class="cls-2" points="309.27 112.7 309.27 140.34 312.88 140.34 312.88 112.7 309.27 112.7 309.27 112.7"/>
    <path class="cls-2" d="M291.73,135c-1.43.7-3.47,1.85-5.69,1.85-6.68,0-10.68-3.36-10.68-10.17,0-7.26,4.3-11.4,10.78-11.4a7.86,7.86,0,0,1,5.25,2.13l2-2a10.93,10.93,0,0,0-7.79-3.12c-8.57,0-14,5.82-14,14.51,0,9.1,5.82,13.57,13.61,13.57,3.36,0,6.78-2,8-2.65L291.73,135h0Z"/>
    <path class="cls-2" d="M251.34,132.59l2.63,7.75h3.81l-9.43-27.63h-4.26l-9.43,27.63h3.69l2.56-7.75h10.43Zm-9.44-3.13,4.24-13.6,4.44,13.6H241.9Z"/>
    <polygon class="cls-2" points="207.68 140.34 211.84 140.34 211.84 126.62 223.37 126.62 223.37 124.2 211.84 124.2 211.84 115.7 225.41 115.7 225.41 112.7 207.68 112.7 207.68 140.34 207.68 140.34"/>
    <path class="cls-2" d="M513.72,132.59l2.63,7.75h3.81l-9.43-27.63h-4.26L497,140.34h3.69l2.56-7.75h10.43Zm-9.44-3.13,4.24-13.6,4.44,13.6h-8.68Z"/>
    <path class="cls-2" d="M587.42,132.59l2.63,7.75h3.81l-9.43-27.63h-4.26l-9.43,27.63h3.69l2.56-7.75h10.43ZM578,129.46l4.24-13.6,4.44,13.6H578Z"/>
    <polygon class="cls-2" points="804.84 140.34 808.45 140.34 808.45 115.74 816.89 115.74 816.89 112.7 796.44 112.7 796.44 115.74 804.84 115.74 804.84 140.34 804.84 140.34"/>
    <path class="cls-2" d="M764.52,140.34V128.53c0-4.59,0-7.91-.25-11.4l0.12,0a80.33,80.33,0,0,0,5.12,9.22l8.77,14h3.61V112.7h-3.36v11.56c0,4.3.08,7.67,0.41,11.36l-0.12,0a77.49,77.49,0,0,0-4.92-9l-8.81-14h-3.94v27.63h3.36Z"/>
    <polygon class="cls-2" points="742.52 124.43 731.82 124.43 731.82 115.7 743.18 115.7 743.18 112.7 728.21 112.7 728.21 140.34 743.79 140.34 743.79 137.34 731.82 137.34 731.82 127.38 742.52 127.38 742.52 124.43 742.52 124.43"/>
    <polygon class="cls-2" points="662.53 124.43 651.83 124.43 651.83 115.7 663.19 115.7 663.19 112.7 648.22 112.7 648.22 140.34 663.8 140.34 663.8 137.34 651.83 137.34 651.83 127.38 662.53 127.38 662.53 124.43 662.53 124.43"/>
    <path class="cls-2" d="M630.68,126.49h-3.53v10.45a11.64,11.64,0,0,1-4.76.74c-6.48,0-10.66-4.14-10.66-11.15s4.39-11.11,11.11-11.11A13.72,13.72,0,0,1,629,116.6l0.9-2.91a17.32,17.32,0,0,0-6.93-1.27c-9.27,0-15,6-15,14.27A14.22,14.22,0,0,0,611.82,137c2.71,2.58,6.15,3.65,10.33,3.65a25,25,0,0,0,8.53-1.52V126.49h0Z"/>
    <path class="cls-2" d="M538.74,140.34V128.53c0-4.59,0-7.91-.25-11.4l0.12,0a80.34,80.34,0,0,0,5.12,9.22l8.77,14h3.61V112.7h-3.36v11.56c0,4.3.08,7.67,0.41,11.36l-0.12,0a77.49,77.49,0,0,0-4.92-9l-8.81-14h-3.94v27.63h3.36Z"/>
    <polygon class="cls-2" points="468.19 134.15 461.39 112.7 456.84 112.7 452.42 140.34 455.83 140.34 459.58 117.6 466.55 140.17 467.12 140.17 469.25 140.17 469.83 140.17 476.79 117.6 480.55 140.34 483.95 140.34 479.54 112.7 474.99 112.7 468.19 134.15 468.19 134.15"/>
    <polygon class="cls-2" points="694.97 134.15 688.17 112.7 683.62 112.7 679.21 140.34 682.61 140.34 686.37 117.6 693.33 140.17 693.91 140.17 696.04 140.17 696.61 140.17 703.58 117.6 707.33 140.34 710.74 140.34 706.32 112.7 701.77 112.7 694.97 134.15 694.97 134.15"/>
    <polygon class="cls-1" points="89.37 0.18 89.44 0.22 89.44 0.07 122.86 19.44 156.35 38.7 156.22 38.77 156.29 38.81 116.68 61.68 115.47 60.98 90.59 46.61 89.37 45.91 89.37 0.18 89.37 0.18"/>
    <polygon class="cls-3" points="140.65 22.69 131.28 5.5 111.68 5.97 140.65 22.69 140.65 22.69"/>
    <polygon class="cls-3" points="164.81 98 175.02 81.29 164.81 64.55 164.81 98 164.81 98"/>
    <polygon class="cls-3" points="111.68 156.59 131.25 157.07 140.65 139.86 111.68 156.59 111.68 156.59"/>
    <polygon class="cls-3" points="34.37 139.86 43.74 157.05 63.34 156.59 34.37 139.86 34.37 139.86"/>
    <polygon class="cls-3" points="10.2 64.55 0 81.26 10.2 98 10.2 64.55 10.2 64.55"/>
    <polygon class="cls-3" points="34.37 22.69 43.74 5.5 63.34 5.97 34.37 22.69 34.37 22.69"/>
    <polygon class="cls-3" points="89.37 160.7 89.44 160.66 89.44 160.81 122.86 141.44 156.35 122.17 156.22 122.1 156.29 122.06 116.68 99.2 115.47 99.9 90.59 114.27 89.37 114.97 89.37 160.7 89.37 160.7"/>
    <polygon class="cls-1" points="158.04 119.02 158.04 118.94 158.17 119.02 158.11 80.39 158.17 41.75 158.04 41.83 158.04 41.75 118.44 64.62 118.44 66.02 118.44 94.75 118.44 96.15 158.04 119.02 158.04 119.02"/>
    <polygon class="cls-1" points="18.81 38.74 18.88 38.7 18.75 38.63 52.24 19.37 85.66 0 85.66 0.15 85.72 0.11 85.72 45.84 84.51 46.54 59.63 60.91 58.41 61.61 18.81 38.74 18.81 38.74"/>
    <polygon class="cls-3" points="85.86 160.7 85.79 160.66 85.79 160.81 52.37 141.44 18.88 122.17 19.01 122.1 18.94 122.06 58.55 99.2 59.76 99.9 84.64 114.27 85.86 114.97 85.86 160.7 85.86 160.7"/>
    <polygon class="cls-1" points="17.05 41.79 17.05 41.87 16.93 41.79 16.99 80.42 16.93 119.05 17.05 118.98 17.05 119.05 56.66 96.19 56.66 94.79 56.66 66.06 56.66 64.65 17.05 41.79 17.05 41.79"/>
  </g>
</svg>
